<svg width="231" height="46" viewBox="0 0 231 46" fill="none" xmlns="http://www.w3.org/2000/svg">
<g clip-path="url(#clip0_710_6588)">
<path d="M71.2357 17.7851V27.4488C71.2357 28.973 71.9971 29.2534 73.5979 29.2534H75.202V33.9059C74.2458 34.0191 73.2836 34.0736 72.3208 34.0689C67.1571 34.0689 64.9999 32.3849 64.9999 28.1351V17.7851H61.9121V13.2125H64.9934V7.07812H71.2357V13.2125H75.202V17.7769L71.2357 17.7851Z" fill="#2A2D26"/>
<path d="M97.5689 20.3491V33.904H91.325V21.593C91.325 19.3107 90.3244 18.0636 88.0029 18.0636C86.0832 18.0636 84.0821 19.3075 84.0821 22.3543V33.904H77.8398V5.35156H84.0821V15.9395C85.4422 14.0942 87.523 12.7314 90.4042 12.7314C94.486 12.7314 97.5624 15.2174 97.5624 20.3491" fill="#2A2D26"/>
<path d="M107.41 13.2109H101.168V33.9027H107.41V13.2109Z" fill="#2A2D26"/>
<path d="M130.78 20.3473V33.9022H124.538V21.5911C124.538 19.3089 123.537 18.0618 121.215 18.0618C119.294 18.0618 117.293 19.3056 117.293 22.3524V33.9022H111.051V13.2088H117.134V16.1431C118.494 14.2178 120.615 12.7344 123.617 12.7344C127.699 12.7344 130.775 15.2204 130.775 20.3522" fill="#2A2D26"/>
<path d="M154.828 13.2071V33.2582C154.828 38.8318 151.067 42.2405 144.263 42.2405C137.821 42.2405 134.502 39.1138 134.26 34.6618H140.422C140.582 36.5876 141.902 37.5499 144.384 37.5489C147.185 37.5489 148.586 36.0263 148.586 33.4995V30.531C147.345 32.3356 145.464 33.4653 142.664 33.4653C137.18 33.4653 133.539 29.1747 133.539 23.0794C133.539 16.9451 137.061 12.7344 142.544 12.7344C145.505 12.7344 147.506 13.9766 148.745 15.9426V13.2071H154.828ZM148.706 23.0713C148.706 19.5827 147.065 17.739 144.263 17.739C141.498 17.739 139.871 19.7425 139.871 23.1512C139.871 26.6006 141.511 28.4443 144.263 28.4443C147.065 28.4443 148.706 26.5599 148.706 23.0648" fill="#2A2D26"/>
<path d="M166.392 17.7851V27.4488C166.392 28.973 167.152 29.2534 168.755 29.2534H170.354V33.9059C169.398 34.0192 168.435 34.0737 167.473 34.0689C162.31 34.0689 160.152 32.3849 160.152 28.1351V17.7851H157.07V13.2125H160.152V7.07812H166.394V13.2125H170.355V17.7769L166.392 17.7851Z" fill="#2A2D26"/>
<path d="M186.318 12.9721V18.6663H184.717C181.236 18.6663 179.235 20.391 179.235 24.2806V33.8987H172.994V13.2118H179.077V17.0606C179.957 14.4947 181.878 12.8906 184.96 12.8906C185.44 12.8906 185.881 12.9314 186.32 12.9705" fill="#2A2D26"/>
<path d="M201.365 33.9022C201.086 33.3805 200.877 32.4986 200.845 31.5759C199.525 33.3398 197.284 34.3831 194.243 34.3831C189.92 34.3831 186.719 32.1774 186.719 28.0466C186.719 24.4781 188.834 22.1128 194.803 21.5911L198.043 21.3107C199.805 21.1102 200.726 20.5885 200.726 19.2648C200.726 18.0227 200.044 17.1799 197.563 17.1799C195.123 17.1799 194.123 17.7814 193.923 19.9071H187.719C188.045 15.3427 190.962 12.7344 197.604 12.7344C204.087 12.7344 206.809 15.1796 206.809 19.11V30.0973C206.809 31.6216 207.089 33.105 207.648 33.9071L201.365 33.9022ZM200.726 25.7611V24.2369C200.285 24.7259 199.605 24.9199 198.644 25.0389L196.08 25.3209C193.965 25.5606 193.078 26.3626 193.078 27.8069C193.078 29.2513 194.158 30.1723 196.12 30.1723C198.522 30.1723 200.723 29.01 200.723 25.7611" fill="#2A2D26"/>
<path d="M230.215 33.9043H223.132L222.613 33.1414C221.412 31.4183 220.291 29.6529 219.17 27.9249C218.049 29.6496 216.893 31.4151 215.689 33.1414L215.168 33.9043H208.205L215.809 23.318L208.605 13.2109H215.729L216.489 14.2934C217.451 15.7361 218.41 17.1804 219.33 18.6247C220.211 17.1804 221.171 15.6904 222.131 14.2934L222.892 13.2109H229.815L222.692 23.2349L230.215 33.9043Z" fill="#2A2D26"/>
<path d="M108.201 6.70991C108.201 7.4794 107.973 8.23161 107.546 8.87135C107.12 9.5111 106.513 10.0096 105.804 10.3039C105.094 10.5981 104.313 10.6749 103.56 10.5244C102.807 10.3739 102.115 10.003 101.573 9.45853C101.03 8.91407 100.661 8.22056 100.511 7.46573C100.362 6.7109 100.44 5.92868 100.734 5.21803C101.029 4.50739 101.527 3.90025 102.166 3.47345C102.805 3.04664 103.556 2.81935 104.324 2.82032C104.834 2.8201 105.339 2.92056 105.81 3.11596C106.281 3.31135 106.709 3.59785 107.069 3.95907C107.43 4.3203 107.716 4.74917 107.911 5.22117C108.106 5.69317 108.206 6.19906 108.206 6.70991" fill="#2A2D26"/>
<path d="M30.995 22.5273C30.995 24.1984 30.5005 25.832 29.5739 27.2214C28.6474 28.6109 27.3305 29.6938 25.7897 30.3333C24.249 30.9728 22.5536 31.1402 20.9179 30.8141C19.2823 30.4881 17.7798 29.6834 16.6006 28.5018C15.4213 27.3201 14.6182 25.8146 14.2929 24.1757C13.9675 22.5367 14.1345 20.8378 14.7727 19.2939C15.4109 17.7501 16.4917 16.4305 17.8783 15.5021C19.265 14.5737 20.8952 14.0781 22.5629 14.0781C24.7993 14.0781 26.944 14.9683 28.5253 16.5528C30.1066 18.1374 30.995 20.2864 30.995 22.5273Z" fill="#2A2D26"/>
<path d="M16.9442 45.0624V39.4302H5.70091V28.1641H0.0800781V45.0624H16.9442Z" fill="#E94B48"/>
<path d="M0.0800781 16.8984H5.70091V5.63225H16.9442V0H0.0800781V16.8984Z" fill="#40AE5E"/>
<path d="M28.1855 0V5.63225H39.4288V16.8984H45.0497V0H28.1855Z" fill="#FDC638"/>
<path d="M45.0497 28.1641H39.4288V39.4302H28.1855V45.0624H45.0497V28.1641Z" fill="#38BFF0"/>
</g>
<defs>
<clipPath id="clip0_710_6588">
<rect width="230.137" height="45.0612" fill="white" transform="translate(0.0800781)"/>
</clipPath>
</defs>
</svg>
